<svg width="300" height="80" viewBox="0 0 300 80" fill="none" xmlns="http://www.w3.org/2000/svg">
<g opacity="0.25" clip-path="url(#clip0_88_761)">
<path d="M249.874 22.484V79.7872H300V0L275.694 0.143617L223.404 8.30425V0L199.098 0.143617L146.413 8.37766C145.583 3.69894 141.507 0.108511 136.605 0.108511H9.95426C4.47128 0.108511 0 4.60532 0 10.117V39.2043C0 44.716 6.6 49.2128 12.0798 49.2128H99.3511C107.394 49.2128 106.529 59.2213 99.3511 59.2213H0V79.7106H136.602C142.082 79.7106 146.556 75.2138 146.556 69.7021V25.9628L173.279 22.4457V79.7489H223.404V25.9308L249.874 22.4489V22.484ZM36.8202 19.7266H99.533C102.6 19.7266 105.086 22.2287 105.086 25.3117C105.086 28.3947 102.562 30.8968 99.533 30.8968H36.8202C33.7564 30.8968 31.267 28.3947 31.267 25.3117C31.267 22.2287 33.7915 19.7266 36.8202 19.7266Z" fill="black"/>
</g>
<defs>
<clipPath id="clip0_88_761">
<rect width="300" height="79.7872" fill="white"/>
</clipPath>
</defs>
</svg>
