<svg xmlns="http://www.w3.org/2000/svg" viewBox="0 0 245 35"><path d="M244.341 19.819c-.263-.323-.621-.43-1.088-.323-.622.166-1.889.405-3.778.715s-4.352.609-7.365.895-6.206.43-9.589.43c-.849 0-1.494-.059-1.961-.179a2 2 0 0 1-.478-.191c3.755-.74 7.186-1.516 10.294-2.303 3.575-.906 6.373-1.754 8.418-2.529s3.061-1.409 3.061-1.897-.311-1.145-.921-1.958-1.35-1.539-2.223-2.16-1.686-.943-2.451-.943q-3.39 0-9.075 1.898c-5.685 1.898-7.102 2.805-9.959 4.607-2.188 1.384-3.527 2.72-4.029 3.985-.836.215-1.649.381-2.427.501-1.183.179-2.153.251-2.882.202-.741-.036-1.1-.166-1.1-.381 0-.191.286-.645.86-1.348s1.196-1.444 1.876-2.208a53 53 0 0 0 2.212-2.59c.514-.669.778-1.121.778-1.372 0-.274-.072-.609-.227-1.003s-.382-.74-.693-1.014a1.6 1.6 0 0 0-1.123-.43c-1.423 0-3.562.405-6.444 1.205-2.63.74-6.492 1.993-11.526 3.77l4.435-4.844-6.624.691-6.301 7.136a80 80 0 0 1-4.555 1.409c-1.351.37-2.403.609-3.168.715-.765.108-1.147.071-1.147-.12s.286-.645.86-1.348 1.196-1.444 1.877-2.208a53 53 0 0 0 2.211-2.59c.514-.669.778-1.121.778-1.372 0-.274-.071-.609-.227-1.003a2.6 2.6 0 0 0-.692-1.014 1.62 1.62 0 0 0-1.124-.43c-1.423 0-3.562.405-6.444 1.205-2.63.74-6.492 1.993-11.526 3.77l4.435-4.844-6.624.691-6.11 6.933a42 42 0 0 1-4.112 1.455c-1.662.501-4.017.979-7.054 1.431s-6.588.669-10.654.669c-.849 0-1.494-.059-1.961-.179a2 2 0 0 1-.478-.191c3.754-.74 7.185-1.516 10.293-2.303 3.575-.906 6.373-1.754 8.418-2.529s3.061-1.409 3.061-1.897-.311-1.145-.921-1.958c-.609-.812-1.35-1.539-2.223-2.16s-1.686-.943-2.451-.943q-3.388 0-9.075 1.898c-5.687 1.898-7.101 2.805-9.959 4.607-2.583 1.646-3.982 3.198-4.22 4.678a139 139 0 0 0-5.512 2.04 147 147 0 0 0-6.277 2.649c-.49.227-.968.441-1.423.656q3.21-3.328 6.959-7.017c3.419-3.377 6.732-6.397 9.912-9.057l-7.604.656-1.47 1.587a1175 1175 0 0 0-3.647 3.95 89 89 0 0 1-3.122 1.194 88 88 0 0 1-4.686 1.528c-1.363.395-2.307.596-2.821.596-.191 0-.323-.059-.406-.166a.94.94 0 0 1-.166-.37c-.059-.298.562-1.205 1.841-2.733q1.92-2.29 5.236-5.584l-6.504.691a147 147 0 0 0-6.144 6.897c-1.949.728-3.419 1.24-4.4 1.528s-1.638.43-1.961.43c-.215 0-.418-.131-.61-.405a3.7 3.7 0 0 1-.467-.955q-.18-.557-.179-.955c0-.215.12-.501.371-.859s.753-.955 1.531-1.79c.778-.848 1.768-1.885 2.965-3.138l1.47-1.551h-5.237c-3.682 0-7.915.513-12.721 1.551q-7.191 1.557-12.303 4.045c-2.069 1.003-3.503 2.053-4.316 3.127l-1.817.144a949 949 0 0 1-21.221 1.491c-6.755.394-12.972.476-18.628.251-5.655-.226-8.489-1.063-8.489-2.505 0-1.301 2.798-2.947 8.405-4.939 5.595-1.98 12.911-3.926 21.939-5.836s18.328-3.4 27.928-4.487c.705-.871 1.136-1.539 1.267-2.004.132-.466.049-.788-.263-.955-.311-.179-.813-.263-1.494-.263-6.157 0-14.719.955-25.68 2.876-10.951 1.921-20.611 4.414-28.968 7.506C4.173 13.423 0 16.657 0 20.058c0 2.78 3.527 4.487 10.569 5.143q10.564.985 25.25-.144c8.19-.633 15.937-1.455 23.242-2.493.621 1.194 2.199 1.85 4.723 1.969 3.347.144 7.341-.609 11.955-2.29a43 43 0 0 0 6.073-2.733c.467 1.194.885 2.112 1.22 2.733.406.751.778 1.253 1.101 1.516s.705.381 1.147.381c.682 0 2.475-.513 5.379-1.551a88 88 0 0 0 1.972-.715q-.467.86-.431 1.325c.024.323.191.574.49.74q.449.25 1.434.251c1.112 0 2.667-.251 4.638-.74a63 63 0 0 0 6.229-1.921 60 60 0 0 0 3.359-1.336c-.67.728-1.328 1.455-2.009 2.195a3477 3477 0 0 0-11.406 12.613l3.552-.37a69 69 0 0 1 6.216-3.997c2.104-1.192 4.807-2.518 8.129-3.974 2.535-1.11 5.607-2.351 9.23-3.712.048.036.083.084.131.12.683.525 1.674.906 2.965 1.145 1.291.227 2.893.346 4.807.346 2.666 0 5.619-.215 8.847-.633a76 76 0 0 0 9.266-1.778c.359-.095.705-.191 1.052-.286l-2.153 2.447h3.144q1.434 0 2.438-.322a4 4 0 0 0 1.698-1.063l3.67-3.962a248 248 0 0 1 7.843-2.505c2.606-.776 4.543-1.289 5.822-1.528 1.279-.251 1.925-.263 1.925-.036 0 .084-.215.381-.657.895s-.932 1.086-1.471 1.719c-1.278 1.444-2.294 2.637-3.025 3.568-.742.943-1.101 1.587-1.101 1.934 0 .93 1.101 1.301 3.288 1.121s4.758-.669 7.711-1.492c.873-.239 1.698-.489 2.487-.728l-2.116 2.398h3.143q1.435 0 2.439-.323c1.004-.323 1.231-.574 1.698-1.062l3.67-3.962a248 248 0 0 1 7.843-2.505c2.606-.776 4.542-1.289 5.822-1.528 1.279-.251 1.925-.263 1.925-.036 0 .084-.215.381-.657.895q-.663.77-1.471 1.719c-1.279 1.444-2.294 2.637-3.026 3.568-.741.943-1.1 1.586-1.1 1.934 0 .93 1.064 1.384 3.192 1.373s4.603-.323 7.424-.943a67 67 0 0 0 3.898-.966c.371.525.957.943 1.781 1.253 1.483.561 3.67.835 6.564.835 2.153 0 4.638-.131 7.461-.405s5.631-.656 8.417-1.145 5.237-1.05 7.341-1.67c-.167-.68-.371-1.181-.634-1.516h-.036.011zm-174.124.654c-2.546.405-3.826.274-3.826-.405s1.196-1.551 3.574-2.637c2.38-1.074 5.225-2.016 8.5-2.815 2.918-.715 5.499-1.11 7.759-1.181l-.334.31c-1.746 1.611-4.161 3.03-7.233 4.26-3.085 1.24-5.895 2.065-8.442 2.47h.002zm60.424-3.331c2.057-1.05 4.353-2.004 6.863-2.852q3.784-1.289 5.128-1.289c.192 0 .431.071.729.227.299.156.563.323.778.525q.323.305.323.466c0 .191-.717.513-2.164.979s-3.562 1.05-6.36 1.754a597 597 0 0 1-8.023 1.958c.467-.501 1.362-1.098 2.703-1.778zm91.785 0c2.056-1.05 4.352-2.004 6.862-2.852q3.783-1.289 5.129-1.289c.191 0 .43.071.741.227.298.156.562.323.778.525q.323.305.323.466c0 .274-1.627.859-4.866 1.754-2.857.788-6.754 1.765-11.68 2.947.467-.501 1.362-1.098 2.702-1.778h.012z"/></svg>